<?xml version="1.0" encoding="UTF-8" standalone="no"?><!DOCTYPE svg PUBLIC "-//W3C//DTD SVG 1.1//EN" "http://www.w3.org/Graphics/SVG/1.1/DTD/svg11.dtd"><svg width="100%" height="100%" viewBox="0 0 36 36" version="1.1" xmlns="http://www.w3.org/2000/svg" xmlns:xlink="http://www.w3.org/1999/xlink" xml:space="preserve" xmlns:serif="http://www.serif.com/" style="fill-rule:evenodd;clip-rule:evenodd;stroke-linecap:round;stroke-linejoin:round;stroke-miterlimit:1.5;"><path d="M29,32c0,0.265 -0.105,0.52 -0.293,0.707c-0.187,0.188 -0.442,0.293 -0.707,0.293l-20,0c-0.265,0 -0.52,-0.105 -0.707,-0.293c-0.188,-0.187 -0.293,-0.442 -0.293,-0.707l0,-23c0,-0.265 0.105,-0.52 0.293,-0.707c0.187,-0.188 0.442,-0.293 0.707,-0.293l20,0c0.265,0 0.52,0.105 0.707,0.293c0.188,0.187 0.293,0.442 0.293,0.707l0,23Z" style="fill:#fff;fill-rule:nonzero;"/><path d="M31,10.986l0,19.028c0,2.2 -1.786,3.986 -3.986,3.986l-18.028,-0c-2.2,-0 -3.986,-1.786 -3.986,-3.986l0,-19.028c0,-2.2 1.786,-3.986 3.986,-3.986l18.028,-0c2.2,-0 3.986,1.786 3.986,3.986Z" style="fill:none;stroke:#c1694f;stroke-width:4px;"/><path d="M25,3l-4,0c0,-0.796 -0.316,-1.559 -0.879,-2.121c-0.562,-0.563 -1.325,-0.879 -2.121,-0.879c-0.796,0 -1.559,0.316 -2.121,0.879c-0.563,0.562 -0.879,1.325 -0.879,2.121l-4,0c-0.53,0 -1.039,0.211 -1.414,0.586c-0.375,0.375 -0.586,0.884 -0.586,1.414l0,5l18,0l0,-5c0,-0.53 -0.211,-1.039 -0.586,-1.414c-0.375,-0.375 -0.884,-0.586 -1.414,-0.586Z" style="fill:#ccd6dd;fill-rule:nonzero;"/><path d="M18,5c1.105,0 2,-0.895 2,-2c0,-1.105 -0.895,-2 -2,-2c-1.105,0 -2,0.895 -2,2c0,1.105 0.895,2 2,2Z" style="fill:#292f33;fill-rule:nonzero;"/><path d="M11,14l9.751,0" style="fill:none;stroke:#99aab5;stroke-width:4px;"/><path d="M15.249,28l9.751,0" style="fill:none;stroke:#99aab5;stroke-width:4px;"/><path d="M11,21l14,0" style="fill:none;stroke:#99aab5;stroke-width:4px;"/></svg>