<svg width="32" height="32" viewBox="0 0 32 32" fill="none" xmlns="http://www.w3.org/2000/svg">
<path d="M5.71429 0C4.19876 0 2.74531 0.602039 1.67368 1.67368C0.602039 2.74531 0 4.19876 0 5.71429V6.85714H32V5.71429C32 4.19876 31.398 2.74531 30.3263 1.67368C29.2547 0.602039 27.8012 0 26.2857 0H5.71429ZM32 9.14286H0V26.2857C0 27.8012 0.602039 29.2547 1.67368 30.3263C2.74531 31.398 4.19876 32 5.71429 32H26.2857C27.8012 32 29.2547 31.398 30.3263 30.3263C31.398 29.2547 32 27.8012 32 26.2857V9.14286ZM11.4286 16C11.4286 16.6062 11.1878 17.1876 10.7591 17.6162C10.3304 18.0449 9.74907 18.2857 9.14286 18.2857C8.53665 18.2857 7.95527 18.0449 7.52661 17.6162C7.09796 17.1876 6.85714 16.6062 6.85714 16C6.85714 15.3938 7.09796 14.8124 7.52661 14.3838C7.95527 13.9551 8.53665 13.7143 9.14286 13.7143C9.74907 13.7143 10.3304 13.9551 10.7591 14.3838C11.1878 14.8124 11.4286 15.3938 11.4286 16ZM9.14286 25.1429C8.53665 25.1429 7.95527 24.902 7.52661 24.4734C7.09796 24.0447 6.85714 23.4634 6.85714 22.8571C6.85714 22.2509 7.09796 21.6696 7.52661 21.2409C7.95527 20.8122 8.53665 20.5714 9.14286 20.5714C9.74907 20.5714 10.3304 20.8122 10.7591 21.2409C11.1878 21.6696 11.4286 22.2509 11.4286 22.8571C11.4286 23.4634 11.1878 24.0447 10.7591 24.4734C10.3304 24.902 9.74907 25.1429 9.14286 25.1429ZM18.2857 16C18.2857 16.6062 18.0449 17.1876 17.6162 17.6162C17.1876 18.0449 16.6062 18.2857 16 18.2857C15.3938 18.2857 14.8124 18.0449 14.3838 17.6162C13.9551 17.1876 13.7143 16.6062 13.7143 16C13.7143 15.3938 13.9551 14.8124 14.3838 14.3838C14.8124 13.9551 15.3938 13.7143 16 13.7143C16.6062 13.7143 17.1876 13.9551 17.6162 14.3838C18.0449 14.8124 18.2857 15.3938 18.2857 16ZM16 25.1429C15.3938 25.1429 14.8124 24.902 14.3838 24.4734C13.9551 24.0447 13.7143 23.4634 13.7143 22.8571C13.7143 22.2509 13.9551 21.6696 14.3838 21.2409C14.8124 20.8122 15.3938 20.5714 16 20.5714C16.6062 20.5714 17.1876 20.8122 17.6162 21.2409C18.0449 21.6696 18.2857 22.2509 18.2857 22.8571C18.2857 23.4634 18.0449 24.0447 17.6162 24.4734C17.1876 24.902 16.6062 25.1429 16 25.1429ZM25.1429 16C25.1429 16.6062 24.902 17.1876 24.4734 17.6162C24.0447 18.0449 23.4634 18.2857 22.8571 18.2857C22.2509 18.2857 21.6696 18.0449 21.2409 17.6162C20.8122 17.1876 20.5714 16.6062 20.5714 16C20.5714 15.3938 20.8122 14.8124 21.2409 14.3838C21.6696 13.9551 22.2509 13.7143 22.8571 13.7143C23.4634 13.7143 24.0447 13.9551 24.4734 14.3838C24.902 14.8124 25.1429 15.3938 25.1429 16Z" fill="white"/>
</svg>
