<svg width="28" height="30" viewBox="0 0 28 30" fill="none" xmlns="http://www.w3.org/2000/svg">
<path d="M27.6921 20.7693V27.6923C27.6921 28.3044 27.4489 28.8913 27.0162 29.3241C26.5834 29.7569 25.9964 30 25.3844 30H2.30767C1.69564 30 1.10867 29.7569 0.675901 29.3241C0.243129 28.8913 0 28.3044 0 27.6923V20.7693C0 20.1573 0.243129 19.5703 0.675901 19.1375C1.10867 18.7048 1.69564 18.4616 2.30767 18.4616H12.6922V11.4218C11.2914 11.1359 10.0467 10.34 9.19931 9.18845C8.35196 8.03692 7.96237 6.61178 8.10607 5.18933C8.24976 3.76687 8.91651 2.44845 9.97704 1.48965C11.0376 0.530857 12.4163 0 13.846 0C15.2757 0 16.6545 0.530857 17.715 1.48965C18.7756 2.44845 19.4423 3.76687 19.586 5.18933C19.7297 6.61178 19.3401 8.03692 18.4928 9.18845C17.6454 10.34 16.4007 11.1359 14.9999 11.4218V18.4616H25.3844C25.9964 18.4616 26.5834 18.7048 27.0162 19.1375C27.4489 19.5703 27.6921 20.1573 27.6921 20.7693ZM18.4614 15.0001C18.4614 15.3061 18.5829 15.5996 18.7993 15.816C19.0157 16.0324 19.3092 16.154 19.6152 16.154H24.2306C24.5366 16.154 24.8301 16.0324 25.0464 15.816C25.2628 15.5996 25.3844 15.3061 25.3844 15.0001C25.3844 14.6941 25.2628 14.4006 25.0464 14.1842C24.8301 13.9679 24.5366 13.8463 24.2306 13.8463H19.6152C19.3092 13.8463 19.0157 13.9679 18.7993 14.1842C18.5829 14.4006 18.4614 14.6941 18.4614 15.0001Z" fill="white"/>
</svg>
