<svg width="32" height="32" viewBox="0 0 32 32" fill="none" xmlns="http://www.w3.org/2000/svg">
<path fill-rule="evenodd" clip-rule="evenodd" d="M5.33333 0C3.91885 0 2.56229 0.561903 1.5621 1.5621C0.561903 2.56229 0 3.91885 0 5.33333V26.6667C0 28.0812 0.561903 29.4377 1.5621 30.4379C2.56229 31.4381 3.91885 32 5.33333 32H26.6667C28.0812 32 29.4377 31.4381 30.4379 30.4379C31.4381 29.4377 32 28.0812 32 26.6667V5.33333C32 3.91885 31.4381 2.56229 30.4379 1.5621C29.4377 0.561903 28.0812 0 26.6667 0H5.33333ZM12.4444 8.88889C12.4444 8.41739 12.6317 7.96521 12.9651 7.63181C13.2985 7.29841 13.7507 7.11111 14.2222 7.11111H24.8889C25.3604 7.11111 25.8126 7.29841 26.146 7.63181C26.4794 7.96521 26.6667 8.41739 26.6667 8.88889C26.6667 9.36038 26.4794 9.81257 26.146 10.146C25.8126 10.4794 25.3604 10.6667 24.8889 10.6667H14.2222C13.7507 10.6667 13.2985 10.4794 12.9651 10.146C12.6317 9.81257 12.4444 9.36038 12.4444 8.88889ZM12.4444 16C12.4444 15.5285 12.6317 15.0763 12.9651 14.7429C13.2985 14.4095 13.7507 14.2222 14.2222 14.2222H24.8889C25.3604 14.2222 25.8126 14.4095 26.146 14.7429C26.4794 15.0763 26.6667 15.5285 26.6667 16C26.6667 16.4715 26.4794 16.9237 26.146 17.2571C25.8126 17.5905 25.3604 17.7778 24.8889 17.7778H14.2222C13.7507 17.7778 13.2985 17.5905 12.9651 17.2571C12.6317 16.9237 12.4444 16.4715 12.4444 16ZM12.4444 23.1111C12.4444 22.6396 12.6317 22.1874 12.9651 21.854C13.2985 21.5206 13.7507 21.3333 14.2222 21.3333H24.8889C25.3604 21.3333 25.8126 21.5206 26.146 21.854C26.4794 22.1874 26.6667 22.6396 26.6667 23.1111C26.6667 23.5826 26.4794 24.0348 26.146 24.3682C25.8126 24.7016 25.3604 24.8889 24.8889 24.8889H14.2222C13.7507 24.8889 13.2985 24.7016 12.9651 24.3682C12.6317 24.0348 12.4444 23.5826 12.4444 23.1111ZM7.11111 7.11111C6.63962 7.11111 6.18743 7.29841 5.85403 7.63181C5.52063 7.96521 5.33333 8.41739 5.33333 8.88889C5.33333 9.36038 5.52063 9.81257 5.85403 10.146C6.18743 10.4794 6.63962 10.6667 7.11111 10.6667C7.58261 10.6667 8.03657 10.4794 8.36997 10.146C8.70337 9.81257 8.89067 9.36038 8.89067 8.88889C8.89067 8.41739 8.70337 7.96521 8.36997 7.63181C8.03657 7.29841 7.58261 7.11111 7.11111 7.11111ZM5.33333 16C5.33333 15.5285 5.52063 15.0763 5.85403 14.7429C6.18743 14.4095 6.63962 14.2222 7.11111 14.2222C7.58261 14.2222 8.03657 14.4095 8.36997 14.7429C8.70337 15.0763 8.89067 15.5285 8.89067 16C8.89067 16.4715 8.70337 16.9237 8.36997 17.2571C8.03657 17.5905 7.58438 17.7778 7.11289 17.7778C6.64139 17.7778 6.18743 17.5905 5.85403 17.2571C5.52063 16.9237 5.33333 16.4715 5.33333 16ZM7.11111 21.3333C6.63962 21.3333 6.18743 21.5206 5.85403 21.854C5.52063 22.1874 5.33333 22.6396 5.33333 23.1111C5.33333 23.5826 5.52063 24.0348 5.85403 24.3682C6.18743 24.7016 6.63962 24.8889 7.11111 24.8889C7.58261 24.8889 8.03657 24.7016 8.36997 24.3682C8.70337 24.0348 8.89067 23.5826 8.89067 23.1111C8.89067 22.6396 8.70337 22.1874 8.36997 21.854C8.03657 21.5206 7.58261 21.3333 7.11111 21.3333Z" fill="white"/>
</svg>
