<svg width="23" height="23" viewBox="0 0 23 23" fill="none" xmlns="http://www.w3.org/2000/svg">
<path fill-rule="evenodd" clip-rule="evenodd" d="M11.5 22.4375C14.4008 22.4375 17.1828 21.2852 19.234 19.234C21.2852 17.1828 22.4375 14.4008 22.4375 11.5C22.4375 8.59919 21.2852 5.8172 19.234 3.76602C17.1828 1.71484 14.4008 0.5625 11.5 0.5625C8.59919 0.5625 5.8172 1.71484 3.76602 3.76602C1.71484 5.8172 0.5625 8.59919 0.5625 11.5C0.5625 14.4008 1.71484 17.1828 3.76602 19.234C5.8172 21.2852 8.59919 22.4375 11.5 22.4375ZM15.8437 15.8437C15.624 16.0632 15.3262 16.1865 15.0156 16.1865C14.7051 16.1865 14.4072 16.0632 14.1875 15.8437L11.5 13.1563L8.8125 15.8437C8.70522 15.9589 8.57584 16.0512 8.43209 16.1153C8.28834 16.1793 8.13316 16.2138 7.97582 16.2165C7.81847 16.2193 7.66217 16.1904 7.51625 16.1314C7.37033 16.0725 7.23778 15.9848 7.1265 15.8735C7.01522 15.7622 6.9275 15.6297 6.86856 15.4837C6.80962 15.3378 6.78067 15.1815 6.78345 15.0242C6.78623 14.8668 6.82067 14.7117 6.88472 14.5679C6.94877 14.4242 7.04111 14.2948 7.15625 14.1875L9.84375 11.5L7.15625 8.8125C6.94925 8.59035 6.83656 8.29653 6.84191 7.99293C6.84727 7.68934 6.97026 7.39967 7.18497 7.18497C7.39967 6.97026 7.68934 6.84727 7.99293 6.84191C8.29653 6.83656 8.59035 6.94925 8.8125 7.15625L11.5 9.84375L14.1875 7.15625C14.2948 7.04111 14.4242 6.94877 14.5679 6.88472C14.7117 6.82067 14.8668 6.78623 15.0242 6.78345C15.1815 6.78067 15.3378 6.80962 15.4837 6.86856C15.6297 6.9275 15.7622 7.01522 15.8735 7.1265C15.9848 7.23778 16.0725 7.37033 16.1314 7.51625C16.1904 7.66217 16.2193 7.81847 16.2165 7.97582C16.2138 8.13316 16.1793 8.28834 16.1153 8.43209C16.0512 8.57584 15.9589 8.70522 15.8437 8.8125L13.1563 11.5L15.8437 14.1875C16.0632 14.4072 16.1865 14.7051 16.1865 15.0156C16.1865 15.3262 16.0632 15.624 15.8437 15.8437Z" fill="black"/>
</svg>
