<?xml version="1.0" encoding="utf-8"?>
<svg viewBox="232.178 234 110.0007 32" xmlns="http://www.w3.org/2000/svg">
  <ellipse cx="248.178" cy="250" rx="5" ry="5" fill="#9785FF" style="fill:#9785FF;fill:color(display-p3 0.5922 0.5216 1.0000);fill-opacity:1;" transform="matrix(1, 0, 0, 1, 7.105427357601002e-15, 0)"/>
  <path d="M 257.187 261.838 C 257.612 262.264 257.569 262.968 257.07 263.303 C 254.526 265.006 251.468 266 248.177 266 C 244.886 266 241.827 265.006 239.284 263.303 C 238.784 262.968 238.741 262.264 239.167 261.838 L 242.821 258.184 C 243.151 257.854 243.663 257.802 244.079 258.015 C 245.308 258.645 246.701 259 248.177 259 C 249.653 259 251.045 258.645 252.275 258.015 C 252.69 257.802 253.203 257.854 253.533 258.184 L 257.187 261.838 Z" fill="#9785FF" style="fill:#9785FF;fill:color(display-p3 0.5922 0.5216 1.0000);fill-opacity:1;" transform="matrix(1, 0, 0, 1, 7.105427357601002e-15, 0)"/>
  <path opacity="0.6" d="M 257.07 236.697 C 257.57 237.032 257.613 237.736 257.188 238.162 L 253.534 241.816 C 253.203 242.146 252.691 242.198 252.275 241.985 C 251.046 241.355 249.653 241 248.178 241 C 243.207 241 239.178 245.03 239.178 250 C 239.178 251.476 239.533 252.869 240.163 254.098 C 240.375 254.514 240.323 255.026 239.993 255.356 L 236.339 259.01 C 235.914 259.436 235.209 259.393 234.875 258.893 C 233.171 256.35 232.178 253.291 232.178 250 C 232.178 241.164 239.341 234 248.178 234 C 251.468 234 254.527 234.994 257.07 236.697 Z" fill="#9785FF" style="fill:#9785FF;fill:color(display-p3 0.5922 0.5216 1.0000);fill-opacity:1;" transform="matrix(1, 0, 0, 1, 7.105427357601002e-15, 0)"/>
  <path fill-rule="evenodd" clip-rule="evenodd" d="M 332.583 255.249 C 332.599 255.233 332.62 255.223 332.643 255.223 C 332.671 255.223 332.696 255.238 332.711 255.261 L 337.453 262.882 C 337.499 262.956 337.579 263 337.665 263 L 341.928 263 C 342.124 263 342.244 262.785 342.141 262.618 L 335.635 252.123 C 335.577 252.028 335.588 251.906 335.663 251.823 L 341.93 244.908 C 342.076 244.747 341.962 244.49 341.745 244.49 L 337.298 244.49 C 337.228 244.49 337.161 244.52 337.114 244.571 L 329.862 252.476 C 329.708 252.644 329.428 252.535 329.428 252.307 L 329.428 237.25 C 329.428 237.112 329.316 237 329.178 237 L 325.428 237 C 325.29 237 325.178 237.112 325.178 237.25 L 325.178 262.75 C 325.178 262.888 325.29 263 325.428 263 L 329.178 263 C 329.316 263 329.428 262.888 329.428 262.75 L 329.428 258.737 C 329.428 258.674 329.452 258.613 329.495 258.567 L 332.583 255.249 Z M 284.428 237.25 C 284.428 237.112 284.54 237 284.678 237 L 288.428 237 C 288.566 237 288.678 237.112 288.678 237.25 L 288.678 262.75 C 288.678 262.888 288.566 263 288.428 263 L 284.678 263 C 284.54 263 284.428 262.888 284.428 262.75 L 284.428 237.25 Z M 279.136 257.591 C 279.036 257.505 278.887 257.512 278.791 257.602 C 278.207 258.154 277.522 258.595 276.772 258.903 C 275.95 259.241 275.065 259.411 274.173 259.403 C 273.419 259.425 272.669 259.296 271.968 259.024 C 271.268 258.752 270.631 258.342 270.099 257.82 C 269.131 256.832 268.574 255.422 268.574 253.74 C 268.574 250.374 270.813 248.071 274.173 248.071 C 275.074 248.059 275.966 248.241 276.787 248.605 C 277.531 248.936 278.199 249.408 278.752 249.994 C 278.847 250.094 279.004 250.105 279.109 250.015 L 281.64 247.825 C 281.744 247.735 281.756 247.579 281.665 247.477 C 279.761 245.349 276.777 244.25 273.94 244.25 C 268.228 244.25 264.178 248.103 264.178 253.772 C 264.178 256.576 265.185 258.937 266.882 260.604 C 268.58 262.271 270.998 263.25 273.788 263.25 C 277.287 263.25 280.104 261.908 281.755 260.187 C 281.852 260.086 281.841 259.925 281.735 259.834 L 279.136 257.591 Z M 309.335 254.988 C 309.321 255.113 309.215 255.207 309.089 255.207 L 295.952 255.207 C 295.793 255.207 295.674 255.355 295.715 255.509 C 296.369 257.932 298.317 259.397 300.977 259.397 C 301.874 259.416 302.762 259.232 303.574 258.858 C 304.331 258.51 305.003 258.007 305.544 257.383 C 305.609 257.307 305.723 257.296 305.8 257.36 L 308.441 259.66 C 308.542 259.748 308.556 259.9 308.469 260.002 C 306.875 261.883 304.291 263.25 300.746 263.25 C 295.292 263.25 291.178 259.473 291.178 253.735 C 291.178 250.92 292.147 248.559 293.762 246.892 C 294.615 246.035 295.637 245.359 296.766 244.904 C 297.894 244.45 299.106 244.228 300.325 244.252 C 305.853 244.252 309.428 248.14 309.428 253.508 C 309.421 254.002 309.39 254.496 309.335 254.988 Z M 295.794 251.504 C 295.748 251.658 295.867 251.809 296.028 251.809 L 304.763 251.809 C 304.924 251.809 305.044 251.657 304.999 251.502 C 304.403 249.442 302.893 248.067 300.547 248.067 C 299.857 248.045 299.171 248.17 298.534 248.433 C 297.898 248.696 297.327 249.091 296.86 249.591 C 296.369 250.147 296.006 250.8 295.794 251.504 Z M 322.425 244.253 C 322.564 244.251 322.678 244.364 322.678 244.503 L 322.678 248.701 C 322.678 248.847 322.554 248.962 322.409 248.951 C 322.003 248.921 321.62 248.895 321.369 248.895 C 318.098 248.895 316.178 251.198 316.178 254.22 L 316.178 262.75 C 316.178 262.888 316.066 263 315.928 263 L 312.178 263 C 312.04 263 311.928 262.888 311.928 262.75 L 311.928 244.762 C 311.928 244.624 312.04 244.512 312.178 244.512 L 315.928 244.512 C 316.066 244.512 316.178 244.624 316.178 244.762 L 316.178 247.287 C 316.178 247.301 316.189 247.313 316.203 247.313 C 316.212 247.313 316.219 247.309 316.224 247.303 C 317.69 245.345 319.854 244.256 322.139 244.256 L 322.425 244.253 Z" style="fill-opacity: 1; fill: #989898;" transform="matrix(1, 0, 0, 1, 7.105427357601002e-15, 0)"/>
</svg>